<?xml version="1.0" encoding="UTF-8" standalone="no"?>
<!-- Created with Inkscape (http://www.inkscape.org/) -->

<svg
   width="512"
   height="512"
   viewBox="0 0 512 512"
   version="1.1"
   id="svg1"
   xml:space="preserve"
   inkscape:version="1.3.2 (091e20e, 2023-11-25, custom)"
   sodipodi:docname="Logo.svg"
   xmlns:inkscape="http://www.inkscape.org/namespaces/inkscape"
   xmlns:sodipodi="http://sodipodi.sourceforge.net/DTD/sodipodi-0.dtd"
   xmlns="http://www.w3.org/2000/svg"
   xmlns:svg="http://www.w3.org/2000/svg"><sodipodi:namedview
     id="namedview1"
     pagecolor="#ffffff"
     bordercolor="#666666"
     borderopacity="1.0"
     inkscape:showpageshadow="2"
     inkscape:pageopacity="0.0"
     inkscape:pagecheckerboard="true"
     inkscape:deskcolor="#d1d1d1"
     inkscape:document-units="px"
     inkscape:zoom="1"
     inkscape:cx="186"
     inkscape:cy="295.5"
     inkscape:window-width="1920"
     inkscape:window-height="1009"
     inkscape:window-x="1912"
     inkscape:window-y="-8"
     inkscape:window-maximized="1"
     inkscape:current-layer="g12" /><defs
     id="defs1" /><g
     inkscape:label="Layer 1"
     inkscape:groupmode="layer"
     id="layer1"><g
       id="g12"
       inkscape:label="Pencil"
       transform="rotate(-45,251.04138,260.37755)"><circle
         style="opacity:1;fill:#ffffff;fill-opacity:1;stroke:#a80000;stroke-width:0;stroke-dasharray:none;stroke-opacity:1"
         id="path14"
         cx="256"
         cy="256"
         r="250.79675"
         transform="rotate(45,251.04138,260.37755)"
         inkscape:label="CircleBG" /><g
         style="fill:#ff6600;stroke:currentColor;stroke-width:0.854746;stroke-linecap:round;stroke-linejoin:round;stroke-dasharray:none"
         id="g1"
         transform="matrix(8.272708,8.272708,-8.272708,8.272708,332.71866,66.220632)"><path
           id="path1-0"
           style="fill:#ffcc00;stroke-width:0.854746;stroke-dasharray:none"
           d="M 15.006763,5.0068143 3.8419443,16.173993 a 2,2 0 0 0 -0.499926,0.829984 L 2.0209622,21.35599 a 0.5,0.5 0 0 0 0.6230484,0.622104 l 4.352957,-1.320112 A 2,2 0 0 0 7.8270691,20.161007 L 18.993068,8.9931195 Z" /><path
           id="path5"
           style="fill:#ff6600;stroke-width:0.854746;stroke-dasharray:none"
           d="m 15.006763,5.0068143 3.986305,3.9863052 2.180905,-2.1811413 A 2.8188812,2.8188812 0 0 0 17.188022,2.8250827 Z" /><path
           style="fill:none;stroke:#000000;stroke-width:0.384535;stroke-linecap:butt;stroke-linejoin:miter;stroke-dasharray:none;stroke-opacity:1"
           d="M 16.063251,4.2012667 20.03782,8.1758373"
           id="path11-0" /></g><g
         style="fill:#ffd42a;stroke:currentColor;stroke-width:0.854746;stroke-linecap:round;stroke-linejoin:round;stroke-dasharray:none"
         id="g4"
         transform="matrix(8.272708,8.272708,-8.272708,8.272708,189.87613,66.220632)"><path
           d="M 21.174,6.812 C 23.831999,4.1546678 19.845999,0.16766782 17.188,2.825 L 3.842,16.174 c -0.2321806,0.2315 -0.4038864,0.516532 -0.5,0.83 l -1.321,4.352 c -0.113982,0.381412 0.2417719,0.736595 0.623,0.622 l 4.353,-1.32 c 0.3131692,-0.09525 0.5981732,-0.265908 0.83,-0.497 z"
           id="path7"
           style="display:inline;fill:#deaa87;stroke:currentColor;stroke-width:0.854746;stroke-linecap:round;stroke-linejoin:round;stroke-dasharray:none"
           sodipodi:nodetypes="ccccccccc" /><path
           d="M 21.174,6.812 C 23.831999,4.1546678 19.845999,0.16766782 17.188,2.825 L 3.842,16.174 7.827,20.161 Z"
           id="path3"
           style="fill:#ffd42a;stroke-width:0.854746;stroke-dasharray:none"
           sodipodi:nodetypes="ccccc" /><path
           d="m 15,5 4,4"
           id="path4"
           style="fill:#ffd42a;stroke-width:0.854746;stroke-dasharray:none" /><ellipse
           style="opacity:1;fill:#ffd42a;stroke:#000000;stroke-width:0.513305;stroke-dasharray:none"
           id="path10"
           cx="-13.58508"
           cy="16.970917"
           transform="rotate(-45)"
           rx="0.2881006"
           ry="0.2143741" /></g><path
         style="fill:none;stroke:#000000;stroke-width:10;stroke-linecap:butt;stroke-linejoin:miter;stroke-dasharray:none;stroke-opacity:1"
         d="m 89.802556,252.46224 324.915564,1e-5"
         id="path11" /><path
         style="fill:none;stroke:#000000;stroke-width:10;stroke-linecap:butt;stroke-linejoin:miter;stroke-dasharray:none;stroke-opacity:1"
         d="M 89.802556,277.96224 H 414.71812"
         id="path12" /></g><g
       id="g13"
       inkscape:label="Recording Circle"><circle
         style="display:inline;opacity:1;fill:#aa0000;stroke:#ff1f1f;stroke-width:0;stroke-dasharray:none;stroke-opacity:1"
         id="path1"
         cx="256"
         cy="256"
         r="100" /><circle
         style="display:inline;fill:#aa0000;fill-opacity:0;stroke:#a80000;stroke-width:8.26561;stroke-dasharray:none;stroke-opacity:1"
         id="path1-7"
         cx="256"
         cy="256"
         r="120.8672" /></g></g></svg>
