<?xml version="1.0" encoding="UTF-8" standalone="no"?>
<!-- Created with Inkscape (http://www.inkscape.org/) -->

<svg
   width="1800"
   height="512"
   viewBox="0 0 1800 512"
   version="1.1"
   id="svg1"
   xml:space="preserve"
   xmlns="http://www.w3.org/2000/svg"
   xmlns:svg="http://www.w3.org/2000/svg"><defs
     id="defs1" /><g
     id="layer1"><circle
       style="fill:#ffffff;fill-opacity:1;stroke:#a80000;stroke-width:0;stroke-dasharray:none;stroke-opacity:1"
       id="path14"
       cx="1529.6875"
       cy="256"
       r="250.79675" /><g
       id="g12"
       transform="rotate(-45,885.08026,-1270.3098)"><g
         style="fill:#ff6600;stroke:currentColor;stroke-width:0.854746;stroke-linecap:round;stroke-linejoin:round;stroke-dasharray:none"
         id="g1"
         transform="matrix(8.272708,8.272708,-8.272708,8.272708,332.71866,66.220632)"><path
           id="path1-0"
           style="fill:#ffcc00;stroke-width:0.854746;stroke-dasharray:none"
           d="M 15.006763,5.0068143 3.8419443,16.173993 a 2,2 0 0 0 -0.499926,0.829984 L 2.0209622,21.35599 a 0.5,0.5 0 0 0 0.6230484,0.622104 l 4.352957,-1.320112 A 2,2 0 0 0 7.8270691,20.161007 L 18.993068,8.9931195 Z" /><path
           id="path5"
           style="fill:#ff6600;stroke-width:0.854746;stroke-dasharray:none"
           d="m 15.006763,5.0068143 3.986305,3.9863052 2.180905,-2.1811413 A 2.8188812,2.8188812 0 0 0 17.188022,2.8250827 Z" /><path
           style="fill:none;stroke:#000000;stroke-width:0.384535;stroke-linecap:butt;stroke-linejoin:miter;stroke-dasharray:none;stroke-opacity:1"
           d="M 16.063251,4.2012667 20.03782,8.1758373"
           id="path11-0" /></g><g
         style="fill:#ffd42a;stroke:currentColor;stroke-width:0.854746;stroke-linecap:round;stroke-linejoin:round;stroke-dasharray:none"
         id="g4"
         transform="matrix(8.272708,8.272708,-8.272708,8.272708,189.87613,66.220632)"><path
           d="M 21.174,6.812 C 23.831999,4.1546678 19.845999,0.16766782 17.188,2.825 L 3.842,16.174 c -0.2321806,0.2315 -0.4038864,0.516532 -0.5,0.83 l -1.321,4.352 c -0.113982,0.381412 0.2417719,0.736595 0.623,0.622 l 4.353,-1.32 c 0.3131692,-0.09525 0.5981732,-0.265908 0.83,-0.497 z"
           id="path7"
           style="display:inline;fill:#deaa87;stroke:currentColor;stroke-width:0.854746;stroke-linecap:round;stroke-linejoin:round;stroke-dasharray:none" /><path
           d="M 21.174,6.812 C 23.831999,4.1546678 19.845999,0.16766782 17.188,2.825 L 3.842,16.174 7.827,20.161 Z"
           id="path3"
           style="fill:#ffd42a;stroke-width:0.854746;stroke-dasharray:none" /><path
           d="m 15,5 4,4"
           id="path4"
           style="fill:#ffd42a;stroke-width:0.854746;stroke-dasharray:none" /><ellipse
           style="opacity:1;fill:#ffd42a;stroke:#000000;stroke-width:0.513305;stroke-dasharray:none"
           id="path10"
           cx="-13.58508"
           cy="16.970917"
           transform="rotate(-45)"
           rx="0.2881006"
           ry="0.2143741" /></g><path
         style="fill:none;stroke:#000000;stroke-width:10;stroke-linecap:butt;stroke-linejoin:miter;stroke-dasharray:none;stroke-opacity:1"
         d="m 89.802556,252.46224 324.915564,1e-5"
         id="path11" /><path
         style="fill:none;stroke:#000000;stroke-width:10;stroke-linecap:butt;stroke-linejoin:miter;stroke-dasharray:none;stroke-opacity:1"
         d="M 89.802556,277.96224 H 414.71812"
         id="path12" /></g><g
       id="g13"
       transform="translate(1273.6875)"><circle
         style="display:inline;opacity:1;fill:#aa0000;stroke:#ff1f1f;stroke-width:0;stroke-dasharray:none;stroke-opacity:1"
         id="path1"
         cx="256"
         cy="256"
         r="100" /><circle
         style="display:inline;fill:#aa0000;fill-opacity:0;stroke:#a80000;stroke-width:8.26561;stroke-dasharray:none;stroke-opacity:1"
         id="path1-7"
         cx="256"
         cy="256"
         r="120.8672" /></g><path
       style="font-size:40px;line-height:1.25;font-family:'Lexend Deca';-inkscape-font-specification:'Lexend Deca, @wght=500';font-variation-settings:'wght' 500;white-space:pre;fill:#ffffff"
       d="m 493.47203,164.6793 q -2.44,0 -4.48,-0.6 -2.04,-0.64 -3.68,-1.88 -1.64,-1.24 -2.92,-3 l 3.4,-3.84 q 1.96,2.72 3.84,3.76 1.88,1.04 4.24,1.04 1.36,0 2.48,-0.4 1.12,-0.44 1.76,-1.16 0.64,-0.76 0.64,-1.72 0,-0.68 -0.28,-1.24 -0.24,-0.6 -0.76,-1.04 -0.52,-0.48 -1.28,-0.88 -0.76,-0.4 -1.72,-0.68 -0.96,-0.28 -2.12,-0.52 -2.2,-0.44 -3.84,-1.16 -1.64,-0.76 -2.76,-1.84 -1.12,-1.12 -1.64,-2.48 -0.52,-1.4 -0.52,-3.16 0,-1.76 0.76,-3.24 0.8,-1.48 2.16,-2.56 1.36,-1.08 3.16,-1.68 1.8,-0.6 3.88,-0.6 2.36,0 4.2,0.56 1.88,0.56 3.28,1.68 1.44,1.08 2.36,2.64 l -3.44,3.4 q -0.8,-1.24 -1.8,-2.04 -1,-0.84 -2.16,-1.24 -1.16,-0.44 -2.44,-0.44 -1.44,0 -2.52,0.4 -1.04,0.4 -1.64,1.16 -0.6,0.72 -0.6,1.76 0,0.8 0.36,1.44 0.36,0.6 1,1.08 0.68,0.48 1.72,0.84 1.04,0.36 2.36,0.64 2.2,0.44 3.96,1.2 1.76,0.72 3,1.76 1.24,1 1.88,2.32 0.64,1.28 0.64,2.88 0,2.76 -1.32,4.76 -1.28,1.96 -3.64,3.04 -2.36,1.04 -5.52,1.04 z m 22.64003,0 q -2.28,0 -3.96,-1 -1.68,-1.04 -2.56,-2.92 -0.88,-1.92 -0.88,-4.56 v -13 h 4.92 v 11.96 q 0,1.68 0.52,2.88 0.52,1.16 1.52,1.8 1,0.64 2.4,0.64 1.04,0 1.88,-0.32 0.88,-0.36 1.52,-0.96 0.64,-0.64 1,-1.48 0.36,-0.88 0.36,-1.88 v -12.64 h 4.92 v 21.08 h -4.8 l -0.08,-4.4 0.88,-0.48 q -0.48,1.52 -1.64,2.72 -1.12,1.16 -2.68,1.88 -1.56,0.68 -3.32,0.68 z m 29.04,0 q -1.4,0 -2.76,-0.4 -1.32,-0.44 -2.4,-1.16 -1.08,-0.72 -1.8,-1.6 -0.72,-0.92 -0.96,-1.84 l 1.16,-0.52 -0.12,5.04 h -4.76 v -29.52 h 4.92 v 13.4 l -0.88,-0.4 q 0.2,-0.96 0.88,-1.8 0.72,-0.88 1.76,-1.56 1.04,-0.72 2.28,-1.12 1.24,-0.44 2.52,-0.44 2.84,0 5,1.4 2.2,1.4 3.44,3.88 1.28,2.48 1.28,5.64 0,3.2 -1.24,5.68 -1.24,2.48 -3.44,3.92 -2.16,1.4 -4.88,1.4 z m -1.04,-4.32 q 1.68,0 3,-0.84 1.32,-0.88 2.08,-2.36 0.76,-1.52 0.76,-3.48 0,-1.92 -0.76,-3.4 -0.72,-1.48 -2.04,-2.32 -1.32,-0.84 -3.04,-0.84 -1.72,0 -3.04,0.84 -1.32,0.84 -2.08,2.32 -0.76,1.48 -0.76,3.4 0,1.96 0.76,3.48 0.76,1.48 2.08,2.36 1.32,0.84 3.04,0.84 z m 17.27998,3.92 v -26.44 h 4.92 v 26.44 z m -4.16,-16.52 v -4.56 h 13.68 v 4.56 z m 27.12003,16.92 q -3.32,0 -5.88,-1.4 -2.52,-1.4 -3.96,-3.8 -1.4,-2.44 -1.4,-5.56 0,-2.48 0.8,-4.52 0.8,-2.04 2.2,-3.52 1.44,-1.52 3.4,-2.32 2,-0.84 4.36,-0.84 2.08,0 3.88,0.8 1.8,0.8 3.12,2.2 1.32,1.36 2,3.28 0.72,1.88 0.68,4.12 l -0.04,1.72 h -17.08 l -0.92,-3.36 h 13.88 l -0.64,0.68 v -0.88 q -0.12,-1.24 -0.8,-2.16 -0.68,-0.96 -1.76,-1.48 -1.04,-0.56 -2.32,-0.56 -1.96,0 -3.32,0.76 -1.32,0.76 -2,2.2 -0.68,1.4 -0.68,3.52 0,2.04 0.84,3.56 0.88,1.52 2.44,2.36 1.6,0.8 3.72,0.8 1.48,0 2.72,-0.48 1.24,-0.48 2.68,-1.72 l 2.44,3.4 q -1.08,1 -2.48,1.72 -1.36,0.68 -2.88,1.08 -1.52,0.4 -3,0.4 z m 27.08001,-0.4 -6,-8.12 -1.12,-1.52 -8.68,-11.44 h 6.08 l 5.84,7.92 1.24,1.68 8.6,11.48 z m -15.84,0 8.36,-11.2 2.8,3.36 -5.36,7.84 z m 13.2,-9.84 -2.68,-3.32 4.84,-7.92 h 5.8 z m 14.39996,9.84 v -26.44 h 4.92 v 26.44 z m -4.16,-16.52 v -4.56 h 13.68 v 4.56 z"
       id="text1"
       transform="matrix(8,0,0,8,-3806.6663,-941.43438)"
       aria-label="Subtext" /></g></svg>
